{"title":"Zombie Apocalypse (2012) x264-wk3d","uid":8431453,"size":1063422727,"categoryP":"video","categoryS":"movies","magnet":"?xt=urn:btih:94332d1f5d7954e8e08b413c22680453500f4573&amp;dn=Zombie+Apocalypse+%282012%29+x264-wk3d&amp;tr=udp%3A%2F%2Ftracker.openbittorrent.com%3A80&amp;tr=udp%3A%2F%2Fopen.demonii.com%3A1337&amp;tr=udp%3A%2F%2Ftracker.coppersurfer.tk%3A6969&amp;tr=udp%3A%2F%2Fexodus.desync.com%3A6969","seeders":0,"leechers":0,"uploader":"wickedkrp","files":-1,"time":1367509498,"description":"Zombie Apocalypse is a film by Syfy and The Asylum starring Ving Rhames, Gary Weeks, Johnny Pacar, Robert Blanche, Anya Monzikova, Lesley-Ann Brandt and Taryn Manning.\n\n==plot==\nMonths after a zombie plague has wiped out 90 percent of the American population, a small group of survivors fight their way cross-country to a rumored refuge on the island of Catalina.\n\n\n\nFormat : MPEG-4\nFormat profile : Base Media / Version 2\nCodec ID : mp42\nFile size : 1 014 MiB\nDuration : 1h 25mn\nOverall bit rate mode : Variable\nOverall bit rate : 1 662 Kbps\nWriting application : HandBrake 0.9.8 2012071700\n\nVideo\nID : 1\nFormat : AVC\nFormat/Info : Advanced Video Codec\nFormat profile : &lt;a class=&quot;__cf_email__&quot; href=&quot;/cdn-cgi/l/email-protection&quot; data-cfemail=&quot;7b361a12153b37495549&quot;&gt;[email&amp;#160;protected]&lt;/a&gt;&lt;script data-cfhash='f9e31' type=&quot;text/javascript&quot;&gt;\n/* &lt;![CDATA[ */!function(){try{var t=&quot;currentScript&quot;in document?document.currentScript:function(){for(var t=document.getElementsByTagName(&quot;script&quot;),e=t.length;e--;)if(t[e].getAttribute(&quot;data-cfhash&quot;))return t[e]}();if(t&amp;&amp;t.previousSibling){var e,r,n,i,c=t.previousSibling,a=c.getAttribute(&quot;data-cfemail&quot;);if(a){for(e=&quot;&quot;,r=parseInt(a.substr(0,2),16),n=2;a.length-n;n+=2)i=parseInt(a.substr(n,2),16)^r,e+=String.fromCharCode(i);e=document.createTextNode(e),c.parentNode.replaceChild(e,c)}t.parentNode.removeChild(t);}}catch(u){}}()/* ]]&gt; */&lt;/script&gt;\nFormat settings, CABAC : Yes\nFormat settings, ReFrames : 4 frames\nCodec ID : avc1\nCodec ID/Info : Advanced Video Coding\nDuration : 1h 25mn\nBit rate mode : Variable\nBit rate : 1 500 Kbps\nWidth : 640 pixels\nHeight : 352 pixels\nDisplay aspect ratio : 16:9\nFrame rate mode : Variable\nFrame rate : 20.000 fps\nMinimum frame rate : 10.000 fps\nMaximum frame rate : 20.000 fps\nColor space : YUV\nChroma subsampling : 4:2:0\nBit depth : 8 bits\nScan type : Progressive\nBits/(Pixel*Frame) : 0.333\nStream size : 914 MiB (90%)\nWriting library : x264 core 120\n\nAudio\nID : 2\nFormat : AAC\nFormat/Info : Advanced Audio Codec\nFormat profile : LC\nCodec ID : 40\nDuration : 1h 25mn\nBit rate mode : Variable\nBit rate : 160 Kbps\nMaximum bit rate : 264 Kbps\nChannel(s) : 2 channels\nChannel positions : Front: L R\nSampling rate : 44.1 KHz\nCompression mode : Lossy\nDelay relative to video : 150ms\nStream size : 97.6 MiB (10%)","torrent":{"xt":"urn:btih:94332d1f5d7954e8e08b413c22680453500f4573","amp;dn":"Zombie+Apocalypse+%282012%29+x264-wk3d","amp;tr":["udp%3A%2F%2Ftracker.openbittorrent.com%3A80","udp%3A%2F%2Fopen.demonii.com%3A1337","udp%3A%2F%2Ftracker.coppersurfer.tk%3A6969","udp%3A%2F%2Fexodus.desync.com%3A6969"],"infoHash":"94332d1f5d7954e8e08b413c22680453500f4573","infoHashBuffer":{"type":"Buffer","data":[148,51,45,31,93,121,84,232,224,139,65,60,34,104,4,83,80,15,69,115]},"announce":[],"urlList":[]}}